<mxfile host="app.diagrams.net" modified="2021-06-18T06:06:09.173Z" agent="5.0 (Windows NT 6.1; WOW64) AppleWebKit/537.36 (KHTML, like Gecko) Chrome/90.0.4430.212 YaBrowser/21.5.3.740 Yowser/2.5 Safari/537.36" etag="wE47IepRCTa5apxcJhPt" version="14.8.0" type="github">
  <diagram name="Page-1" id="7e0a89b8-554c-2b80-1dc8-d5c74ca68de4">
    <mxGraphModel dx="884" dy="469" grid="1" gridSize="10" guides="1" tooltips="1" connect="1" arrows="1" fold="1" page="1" pageScale="1" pageWidth="1100" pageHeight="850" background="none" math="0" shadow="0">
      <root>
        <mxCell id="0" />
        <mxCell id="1" parent="0" />
        <mxCell id="1cb643a89b7d889d-12" style="edgeStyle=orthogonalEdgeStyle;rounded=0;html=1;exitX=1;exitY=0.5;exitPerimeter=0;entryX=0;entryY=0.5;entryPerimeter=0;labelBackgroundColor=none;startArrow=none;startFill=0;startSize=5;endArrow=none;endFill=0;endSize=5;jettySize=auto;orthogonalLoop=1;strokeColor=#000000;strokeWidth=1;fontFamily=Verdana;fontSize=12;fontColor=#000000;" parent="1" source="1cb643a89b7d889d-1" target="1cb643a89b7d889d-2" edge="1">
          <mxGeometry relative="1" as="geometry" />
        </mxCell>
        <mxCell id="1cb643a89b7d889d-1" value="40&amp;nbsp;&lt;b&gt;Ω&lt;/b&gt;" style="verticalLabelPosition=bottom;shadow=0;dashed=0;align=center;html=1;verticalAlign=top;strokeWidth=1;shape=mxgraph.electrical.resistors.resistor_2;rounded=1;comic=0;labelBackgroundColor=none;fontFamily=Verdana;fontSize=12" parent="1" vertex="1">
          <mxGeometry x="322" y="120" width="100" height="20" as="geometry" />
        </mxCell>
        <mxCell id="1cb643a89b7d889d-15" style="edgeStyle=orthogonalEdgeStyle;rounded=0;html=1;exitX=1;exitY=0.5;exitPerimeter=0;labelBackgroundColor=none;startArrow=none;startFill=0;startSize=5;endArrow=none;endFill=0;endSize=5;jettySize=auto;orthogonalLoop=1;strokeWidth=1;fontFamily=Verdana;fontSize=12" parent="1" source="1cb643a89b7d889d-2" edge="1">
          <mxGeometry relative="1" as="geometry">
            <mxPoint x="612" y="170" as="targetPoint" />
            <Array as="points">
              <mxPoint x="582" y="130" />
              <mxPoint x="582" y="170" />
            </Array>
          </mxGeometry>
        </mxCell>
        <mxCell id="1cb643a89b7d889d-2" value="20&amp;nbsp;&lt;b&gt;Ω&lt;/b&gt;" style="verticalLabelPosition=bottom;shadow=0;dashed=0;align=center;html=1;verticalAlign=top;strokeWidth=1;shape=mxgraph.electrical.resistors.resistor_2;rounded=1;comic=0;labelBackgroundColor=none;fontFamily=Verdana;fontSize=12" parent="1" vertex="1">
          <mxGeometry x="462" y="120" width="100" height="20" as="geometry" />
        </mxCell>
        <mxCell id="1cb643a89b7d889d-13" style="edgeStyle=orthogonalEdgeStyle;rounded=0;html=1;exitX=1;exitY=0.5;exitPerimeter=0;entryX=0;entryY=0.5;entryPerimeter=0;labelBackgroundColor=none;startArrow=none;startFill=0;startSize=5;endArrow=none;endFill=0;endSize=5;jettySize=auto;orthogonalLoop=1;strokeWidth=1;fontFamily=Verdana;fontSize=12" parent="1" source="1cb643a89b7d889d-3" target="1cb643a89b7d889d-4" edge="1">
          <mxGeometry relative="1" as="geometry" />
        </mxCell>
        <mxCell id="1cb643a89b7d889d-3" value="70&amp;nbsp;&lt;b&gt;Ω&lt;/b&gt;" style="verticalLabelPosition=bottom;shadow=0;dashed=0;align=center;html=1;verticalAlign=top;strokeWidth=1;shape=mxgraph.electrical.resistors.resistor_2;rounded=1;comic=0;labelBackgroundColor=none;fontFamily=Verdana;fontSize=12" parent="1" vertex="1">
          <mxGeometry x="322" y="210" width="100" height="20" as="geometry" />
        </mxCell>
        <mxCell id="1cb643a89b7d889d-14" style="edgeStyle=orthogonalEdgeStyle;rounded=0;html=1;exitX=1;exitY=0.5;exitPerimeter=0;labelBackgroundColor=none;startArrow=none;startFill=0;startSize=5;endArrow=none;endFill=0;endSize=5;jettySize=auto;orthogonalLoop=1;strokeWidth=1;fontFamily=Verdana;fontSize=12" parent="1" source="1cb643a89b7d889d-4" edge="1">
          <mxGeometry relative="1" as="geometry">
            <mxPoint x="612" y="170" as="targetPoint" />
            <Array as="points">
              <mxPoint x="582" y="220" />
              <mxPoint x="582" y="170" />
            </Array>
          </mxGeometry>
        </mxCell>
        <mxCell id="1cb643a89b7d889d-4" value="20&amp;nbsp;&lt;b&gt;Ω&lt;/b&gt;" style="verticalLabelPosition=bottom;shadow=0;dashed=0;align=center;html=1;verticalAlign=top;strokeWidth=1;shape=mxgraph.electrical.resistors.resistor_2;rounded=1;comic=0;labelBackgroundColor=none;fontFamily=Verdana;fontSize=12" parent="1" vertex="1">
          <mxGeometry x="462" y="210" width="100" height="20" as="geometry" />
        </mxCell>
        <mxCell id="1cb643a89b7d889d-10" style="edgeStyle=orthogonalEdgeStyle;rounded=0;html=1;exitX=1;exitY=0.5;exitPerimeter=0;entryX=0;entryY=0.5;entryPerimeter=0;labelBackgroundColor=none;startArrow=none;startFill=0;startSize=5;endArrow=none;endFill=0;endSize=5;jettySize=auto;orthogonalLoop=1;strokeWidth=1;fontFamily=Verdana;fontSize=12" parent="1" source="1cb643a89b7d889d-5" target="1cb643a89b7d889d-1" edge="1">
          <mxGeometry relative="1" as="geometry" />
        </mxCell>
        <mxCell id="1cb643a89b7d889d-11" style="edgeStyle=orthogonalEdgeStyle;rounded=0;html=1;exitX=1;exitY=0.5;exitPerimeter=0;entryX=0;entryY=0.5;entryPerimeter=0;labelBackgroundColor=none;startArrow=none;startFill=0;startSize=5;endArrow=none;endFill=0;endSize=5;jettySize=auto;orthogonalLoop=1;strokeWidth=1;fontFamily=Verdana;fontSize=12" parent="1" source="1cb643a89b7d889d-5" target="1cb643a89b7d889d-3" edge="1">
          <mxGeometry relative="1" as="geometry" />
        </mxCell>
        <mxCell id="1cb643a89b7d889d-5" value="50&amp;nbsp;&lt;b&gt;Ω&lt;/b&gt;" style="verticalLabelPosition=bottom;shadow=0;dashed=0;align=center;html=1;verticalAlign=top;strokeWidth=1;shape=mxgraph.electrical.resistors.resistor_2;rounded=1;comic=0;labelBackgroundColor=none;fontFamily=Verdana;fontSize=12;" parent="1" vertex="1">
          <mxGeometry x="162" y="160" width="100" height="20" as="geometry" />
        </mxCell>
        <mxCell id="1cb643a89b7d889d-9" style="edgeStyle=orthogonalEdgeStyle;rounded=0;html=1;exitX=0;exitY=0.5;exitPerimeter=0;entryX=0;entryY=0.5;entryPerimeter=0;labelBackgroundColor=none;startArrow=none;startFill=0;startSize=5;endArrow=none;endFill=0;endSize=5;jettySize=auto;orthogonalLoop=1;strokeWidth=1;fontFamily=Verdana;fontSize=12" parent="1" source="1cb643a89b7d889d-6" target="1cb643a89b7d889d-5" edge="1">
          <mxGeometry relative="1" as="geometry">
            <Array as="points">
              <mxPoint x="122" y="300" />
              <mxPoint x="122" y="170" />
            </Array>
          </mxGeometry>
        </mxCell>
        <mxCell id="1cb643a89b7d889d-6" value="20&amp;nbsp;&lt;b&gt;Ω&lt;/b&gt;" style="verticalLabelPosition=bottom;shadow=0;dashed=0;align=center;html=1;verticalAlign=top;strokeWidth=1;shape=mxgraph.electrical.resistors.resistor_2;rounded=1;comic=0;labelBackgroundColor=none;fontFamily=Verdana;fontSize=12" parent="1" vertex="1">
          <mxGeometry x="162" y="290" width="100" height="20" as="geometry" />
        </mxCell>
        <mxCell id="1cb643a89b7d889d-8" style="edgeStyle=orthogonalEdgeStyle;rounded=0;html=1;exitX=1;exitY=0.5;exitPerimeter=0;entryX=1;entryY=0.5;entryPerimeter=0;labelBackgroundColor=none;startArrow=none;startFill=0;startSize=5;endArrow=none;endFill=0;endSize=5;jettySize=auto;orthogonalLoop=1;strokeWidth=1;fontFamily=Verdana;fontSize=12" parent="1" source="1cb643a89b7d889d-7" target="1cb643a89b7d889d-6" edge="1">
          <mxGeometry relative="1" as="geometry" />
        </mxCell>
        <mxCell id="1cb643a89b7d889d-16" style="edgeStyle=orthogonalEdgeStyle;rounded=0;html=1;exitX=0;exitY=0.5;exitPerimeter=0;labelBackgroundColor=none;startArrow=none;startFill=0;startSize=5;endArrow=none;endFill=0;endSize=5;jettySize=auto;orthogonalLoop=1;strokeWidth=1;fontFamily=Verdana;fontSize=12" parent="1" source="1cb643a89b7d889d-7" edge="1">
          <mxGeometry relative="1" as="geometry">
            <mxPoint x="612" y="170" as="targetPoint" />
            <Array as="points">
              <mxPoint x="632" y="300" />
              <mxPoint x="632" y="170" />
            </Array>
          </mxGeometry>
        </mxCell>
        <mxCell id="1cb643a89b7d889d-7" value="220 V" style="verticalLabelPosition=bottom;shadow=0;dashed=0;align=center;fillColor=#000000;html=1;verticalAlign=top;strokeWidth=1;shape=mxgraph.electrical.miscellaneous.monocell_battery;rounded=1;comic=0;labelBackgroundColor=none;fontFamily=Verdana;fontSize=12;flipH=1;" parent="1" vertex="1">
          <mxGeometry x="442" y="270" width="100" height="60" as="geometry" />
        </mxCell>
        <mxCell id="1cb643a89b7d889d-17" value="A" style="ellipse;whiteSpace=wrap;html=1;rounded=1;shadow=0;comic=0;labelBackgroundColor=none;strokeColor=none;strokeWidth=2;fillColor=#000000;fontFamily=Verdana;fontSize=12;align=center;labelPosition=center;verticalLabelPosition=top;verticalAlign=bottom;" parent="1" vertex="1">
          <mxGeometry x="260" y="168" width="4" height="4" as="geometry" />
        </mxCell>
        <mxCell id="1cb643a89b7d889d-18" value="C" style="ellipse;whiteSpace=wrap;html=1;rounded=1;shadow=0;comic=0;labelBackgroundColor=none;strokeColor=none;strokeWidth=2;fillColor=#000000;fontFamily=Verdana;fontSize=12;align=center;labelPosition=center;verticalLabelPosition=top;verticalAlign=bottom;" parent="1" vertex="1">
          <mxGeometry x="441" y="128" width="4" height="4" as="geometry" />
        </mxCell>
        <mxCell id="1cb643a89b7d889d-19" value="D" style="ellipse;whiteSpace=wrap;html=1;rounded=1;shadow=0;comic=0;labelBackgroundColor=none;strokeColor=none;strokeWidth=2;fontFamily=Verdana;fontSize=12;align=center;labelPosition=center;verticalLabelPosition=top;verticalAlign=bottom;fillColor=#000000;" parent="1" vertex="1">
          <mxGeometry x="441" y="218" width="4" height="4" as="geometry" />
        </mxCell>
        <mxCell id="1cb643a89b7d889d-21" value="B" style="ellipse;whiteSpace=wrap;html=1;rounded=1;shadow=0;comic=0;labelBackgroundColor=none;strokeColor=none;strokeWidth=2;fillColor=#000000;fontFamily=Verdana;fontSize=12;fontColor=#000000;align=center;labelPosition=center;verticalLabelPosition=top;verticalAlign=bottom;" parent="1" vertex="1">
          <mxGeometry x="610" y="168" width="4" height="4" as="geometry" />
        </mxCell>
        <mxCell id="1cb643a89b7d889d-22" value="E" style="ellipse;whiteSpace=wrap;html=1;rounded=1;shadow=0;comic=0;labelBackgroundColor=none;strokeColor=none;strokeWidth=2;fillColor=#000000;fontFamily=Verdana;fontSize=12;align=right;labelPosition=left;verticalLabelPosition=middle;verticalAlign=middle;" parent="1" vertex="1">
          <mxGeometry x="120" y="232" width="4" height="4" as="geometry" />
        </mxCell>
        <mxCell id="SgU4amwi3geXqTbFVM8k-3" style="edgeStyle=orthogonalEdgeStyle;rounded=0;orthogonalLoop=1;jettySize=auto;html=1;exitX=0;exitY=0.84;exitDx=0;exitDy=0;exitPerimeter=0;" edge="1" parent="1" source="SgU4amwi3geXqTbFVM8k-1">
          <mxGeometry relative="1" as="geometry">
            <mxPoint x="120" y="160" as="targetPoint" />
          </mxGeometry>
        </mxCell>
        <mxCell id="SgU4amwi3geXqTbFVM8k-5" style="edgeStyle=orthogonalEdgeStyle;rounded=0;orthogonalLoop=1;jettySize=auto;html=1;exitX=1;exitY=0.84;exitDx=0;exitDy=0;exitPerimeter=0;endArrow=none;endFill=0;entryX=0.5;entryY=1;entryDx=0;entryDy=0;" edge="1" parent="1" source="SgU4amwi3geXqTbFVM8k-1" target="1cb643a89b7d889d-21">
          <mxGeometry relative="1" as="geometry">
            <mxPoint x="620" y="60" as="targetPoint" />
            <Array as="points">
              <mxPoint x="612" y="76" />
            </Array>
          </mxGeometry>
        </mxCell>
        <mxCell id="SgU4amwi3geXqTbFVM8k-1" value="" style="pointerEvents=1;verticalLabelPosition=bottom;shadow=0;dashed=0;align=center;html=1;verticalAlign=top;shape=mxgraph.electrical.electro-mechanical.push_switch_no;" vertex="1" parent="1">
          <mxGeometry x="347" y="60" width="75" height="19" as="geometry" />
        </mxCell>
        <mxCell id="SgU4amwi3geXqTbFVM8k-4" value="" style="endArrow=none;html=1;" edge="1" parent="1">
          <mxGeometry width="50" height="50" relative="1" as="geometry">
            <mxPoint x="430" y="270" as="sourcePoint" />
            <mxPoint x="480" y="220" as="targetPoint" />
          </mxGeometry>
        </mxCell>
      </root>
    </mxGraphModel>
  </diagram>
</mxfile>
